<svg version="1.1" id="Layer_1" xmlns="http://www.w3.org/2000/svg" xmlns:xlink="http://www.w3.org/1999/xlink" x="0px" y="0px"
	 width="100%" viewBox="0 0 896 512" enable-background="new 0 0 896 512" xml:space="preserve">
<path fill="#CCD6F4" opacity="1.000000" stroke="none" 
	d="
M292.525513,464.499756 
	C258.339966,435.343842 230.388474,401.794983 212.777344,360.451202 
	C203.199524,337.966370 197.406799,314.471802 195.566284,290.009186 
	C191.252701,232.676300 204.324585,179.139191 232.026947,129.289658 
	C256.703033,84.885872 293.436615,53.108040 339.647552,32.225094 
	C365.761108,20.424271 393.131775,12.806596 421.461273,8.962876 
	C461.442749,3.538230 500.525604,8.062915 538.400513,21.807322 
	C578.781372,36.461159 613.477966,59.830151 642.074280,91.934631 
	C675.969116,129.987701 696.831970,174.270645 704.442932,224.716949 
	C712.670776,279.252380 704.330200,331.323151 679.334229,380.299408 
	C654.625488,428.712830 617.820312,465.619141 569.425659,490.795410 
	C558.456238,496.502045 547.079773,501.161835 535.550537,505.514740 
	C532.272034,506.752533 528.880432,507.697144 525.296570,507.028442 
	C518.328186,505.728333 514.697144,501.032928 514.676270,492.912506 
	C514.620056,471.079590 514.723022,449.246155 514.639587,427.413422 
	C514.572876,409.934235 511.771576,393.231659 500.106018,379.216736 
	C499.613464,378.625000 499.436829,377.770294 498.915588,376.591614 
	C505.278198,374.357208 511.731323,373.958740 517.978394,372.734863 
	C541.057617,368.213226 562.561523,360.311249 580.242676,344.135223 
	C598.653748,327.291321 607.761658,305.719727 611.680603,281.566284 
	C614.119751,266.532990 614.528564,251.472626 612.763916,236.317978 
	C610.814270,219.575531 605.188293,204.190918 595.018494,190.850357 
	C590.325867,184.694656 588.801331,178.887604 590.620789,171.484604 
	C594.918518,153.997665 592.514954,136.803543 587.434448,119.838730 
	C586.073547,115.294296 582.866272,113.752281 578.248718,113.997681 
	C561.787720,114.872505 547.200623,120.969070 533.558167,129.747330 
	C522.397034,136.929001 510.421295,139.520279 497.331757,136.693314 
	C492.625092,135.676804 487.846771,134.984619 483.092102,134.199173 
	C459.879456,130.364563 436.697021,130.929001 413.559692,134.830597 
	C407.824585,135.797699 402.131317,137.021454 396.433624,138.199020 
	C390.289062,139.468964 384.608917,138.532013 379.183960,135.280548 
	C369.175720,129.281998 358.919067,123.779175 348.012970,119.499687 
	C340.516418,116.558090 332.783234,114.725388 324.886719,113.487411 
	C319.778351,112.686554 317.203125,114.579269 315.347351,120.062965 
	C309.219116,138.171478 308.369049,156.535950 312.774963,175.132156 
	C313.708557,179.072708 313.494171,182.773483 310.842438,186.007858 
	C296.439697,203.575089 290.218811,223.982025 288.981781,246.413437 
	C287.702881,269.604279 291.378021,291.858276 300.365875,313.161743 
	C311.495422,339.541504 332.160645,355.673950 358.286469,365.615479 
	C369.996674,370.071472 382.185944,372.664429 394.515045,374.681274 
	C396.626862,375.026703 398.715515,375.513611 400.766052,375.925354 
	C401.668030,378.550873 400.039276,380.317200 399.311066,382.237732 
	C396.418396,389.866486 393.173889,397.369843 390.519440,405.077972 
	C388.878448,409.843201 385.825928,412.592682 381.213715,413.936127 
	C376.431122,415.329254 371.764130,417.171082 366.691223,417.434326 
	C365.074432,417.518219 363.413666,417.895172 362.190033,419.071594 
	C361.849182,420.597992 363.076782,421.195618 363.748962,422.072083 
	C364.768005,423.400787 367.192719,424.308136 365.325470,426.520416 
	C363.925507,428.179047 362.334381,429.758301 359.756744,428.714813 
	C357.657654,427.865051 355.106812,426.645020 355.934662,424.239990 
	C358.087280,417.986664 354.028381,417.930725 349.927338,417.143555 
	C336.871704,414.637695 326.798248,407.381134 318.795837,397.004547 
	C311.702789,387.807068 306.046143,377.265991 295.681396,371.071228 
	C288.379852,366.707275 280.877167,362.480286 271.759918,365.310211 
	C266.640717,366.899139 265.740326,369.492615 268.981781,373.724854 
	C269.881927,374.900177 270.941467,376.064697 272.170074,376.860107 
	C285.395752,385.422089 294.027527,397.649658 300.165863,411.848175 
	C305.749146,424.762787 313.670837,435.522552 326.746490,441.792816 
	C336.068054,446.262787 345.972412,448.258392 356.187042,448.592346 
	C365.177338,448.886292 374.186584,448.760651 383.183746,448.604919 
	C386.680847,448.544403 388.368011,449.487915 388.308624,453.351288 
	C388.101074,466.848267 388.346161,480.354279 388.004517,493.846405 
	C387.750580,503.873932 381.453735,508.942017 371.711853,506.467316 
	C355.497162,502.348236 340.351227,495.369476 325.752686,487.271362 
	C314.074402,480.793121 303.013763,473.366608 292.525513,464.499756 
z"/>
<path fill="#000000" opacity="1.000000" stroke="none" 
	d="
M340.027466,425.238739 
	C338.106110,423.779388 334.108856,423.141174 336.345245,420.369385 
	C339.817230,416.066132 343.400726,420.130981 347.228149,421.363525 
	C345.702911,424.598450 344.120728,426.835052 340.027466,425.238739 
z"/>
<path fill="#000000" opacity="1.000000" stroke="none" 
	d="
M381.246918,427.390961 
	C377.617615,428.213043 376.217926,425.565308 376.162598,423.427338 
	C376.089722,420.611694 379.088287,419.746948 381.480804,419.248688 
	C383.043732,418.923248 384.196533,420.202332 385.041107,421.455017 
	C386.026489,422.916534 384.977814,423.904846 384.056000,424.843506 
	C383.254242,425.659912 382.381592,426.406799 381.246918,427.390961 
z"/>
<path fill="#000000" opacity="1.000000" stroke="none" 
	d="
M319.945892,408.100037 
	C323.758545,407.303375 325.341553,409.872833 326.398621,412.357544 
	C327.313995,414.509125 325.920105,416.382080 323.461884,417.966217 
	C321.594971,414.872620 316.770020,413.340881 319.945892,408.100037 
z"/>
</svg>