<svg version="1.1" id="Layer_1" xmlns="http://www.w3.org/2000/svg" xmlns:xlink="http://www.w3.org/1999/xlink" x="0px" y="0px"
	 width="100%" viewBox="0 0 256 256"  xml:space="preserve">
<path fill="#ffffff" opacity="1.000000" stroke="none" 
	d="
M1.000000,241.000000 
	C1.000000,166.645767 1.000000,92.291542 1.342673,17.344971 
	C4.049302,8.837028 10.164945,4.568808 17.000000,1.000000 
	C91.354225,1.000000 165.708450,1.000000 240.655029,1.342675 
	C249.162949,4.049346 253.431183,10.164955 257.000000,17.000000 
	C257.000000,91.354225 257.000000,165.708450 256.657318,240.655029 
	C253.950699,249.162994 247.835037,253.431183 241.000000,257.000000 
	C166.645767,257.000000 92.291542,257.000000 17.344963,256.657318 
	C8.837005,253.950699 4.568809,247.835037 1.000000,241.000000 
M141.000000,202.499832 
	C141.000000,187.834167 140.852692,173.166061 141.093475,158.504364 
	C141.162003,154.330872 141.820419,149.996704 143.135406,146.044693 
	C147.848419,131.880432 159.635162,125.704880 172.608063,129.979279 
	C181.845245,133.022812 186.611862,141.210281 186.857635,152.304031 
	C187.341064,174.125168 186.981354,195.964600 187.009384,217.796402 
	C187.020309,226.302002 188.728165,227.999039 196.983826,227.999847 
	C204.649979,228.000595 212.316116,228.000549 219.982269,227.999832 
	C228.588089,227.999054 229.994949,226.603516 229.997971,217.995712 
	C230.004547,199.163651 230.475006,180.315216 229.826065,161.505539 
	C229.421494,149.778397 228.139893,137.940186 225.766312,126.458931 
	C222.944778,112.810776 214.672562,102.818008 201.518906,97.121498 
	C192.858154,93.370750 183.820541,93.782722 174.821060,94.079857 
	C166.237198,94.363266 158.064758,96.527176 151.308334,102.239624 
	C147.891098,105.128853 144.739990,108.332817 140.999542,111.833420 
	C140.999542,108.642242 141.061035,105.879913 140.986206,103.121292 
	C140.847961,98.024658 138.795990,96.014900 133.768173,96.005028 
	C124.768822,95.987350 115.769279,95.970802 106.770073,96.011307 
	C101.519806,96.034935 100.015343,97.496933 100.012405,102.694107 
	C99.990044,142.191422 99.990486,181.688736 100.011253,221.186050 
	C100.014130,226.652390 101.445312,227.977737 107.150139,227.993500 
	C115.982811,228.017899 124.815620,228.011230 133.648331,227.995743 
	C138.927307,227.986496 140.924515,225.981979 140.985718,220.498383 
	C141.048950,214.832809 140.999924,209.165970 141.000000,202.499832 
M39.000000,216.403931 
	C39.000000,217.402573 38.999573,218.401199 39.000069,219.399841 
	C39.003696,226.711060 40.288601,227.998108 47.594345,227.999649 
	C55.250160,228.001266 62.905975,228.001907 70.561790,227.999451 
	C78.124275,227.997025 79.993538,226.092468 79.996681,218.302231 
	C80.005943,195.334793 79.999992,172.367340 80.000000,149.399902 
	C80.000000,134.753998 80.012039,120.108078 79.994972,105.462196 
	C79.986244,97.971245 78.059196,96.004623 70.825508,96.000938 
	C62.836834,95.996864 54.848148,95.993492 46.859486,96.001991 
	C40.035946,96.009254 39.001911,97.072319 39.001366,104.085602 
	C38.998474,141.199661 39.000000,178.313705 39.000000,216.403931 
M48.795650,80.963089 
	C59.706291,85.781776 69.704506,82.987701 77.671188,75.389969 
	C84.412903,68.960487 87.656212,60.337982 85.004471,50.476250 
	C80.856857,35.051434 66.912918,27.135996 53.384628,30.493862 
	C40.688118,33.645271 33.924824,42.163952 32.193508,55.608223 
	C31.040638,64.560631 38.562672,75.773392 48.795650,80.963089 
z"/>
<path fill="#" opacity="0.000000" stroke="none" 
	d="
M16.528801,1.000000 
	C10.164945,4.568808 4.049302,8.837028 1.342673,16.876312 
	C1.000000,11.741570 1.000000,6.483139 1.000000,1.000000 
	C6.017719,1.000000 11.037662,1.000000 16.528801,1.000000 
z"/>
<path fill="#" opacity="0.000000" stroke="none" 
	d="
M257.000000,16.528801 
	C253.431183,10.164955 249.162949,4.049346 241.123688,1.342675 
	C246.258438,1.000000 251.516861,1.000000 257.000000,1.000000 
	C257.000000,6.017719 257.000000,11.037662 257.000000,16.528801 
z"/>
<path fill="#" opacity="0.000000" stroke="none" 
	d="
M1.000000,241.471191 
	C4.568809,247.835037 8.837005,253.950699 16.876305,256.657318 
	C11.741570,257.000000 6.483140,257.000000 1.000000,257.000000 
	C1.000000,251.982285 1.000000,246.962341 1.000000,241.471191 
z"/>
<path fill="#" opacity="0.000000" stroke="none" 
	d="
M241.471191,257.000000 
	C247.835037,253.431183 253.950699,249.162994 256.657318,241.123688 
	C257.000000,246.258438 257.000000,251.516861 257.000000,257.000000 
	C251.982285,257.000000 246.962341,257.000000 241.471191,257.000000 
z"/>
<path fill="#" opacity="0.000000" stroke="none" 
	d="
M141.000000,202.999756 
	C140.999924,209.165970 141.048950,214.832809 140.985718,220.498383 
	C140.924515,225.981979 138.927307,227.986496 133.648331,227.995743 
	C124.815620,228.011230 115.982811,228.017899 107.150139,227.993500 
	C101.445312,227.977737 100.014130,226.652390 100.011253,221.186050 
	C99.990486,181.688736 99.990044,142.191422 100.012405,102.694107 
	C100.015343,97.496933 101.519806,96.034935 106.770073,96.011307 
	C115.769279,95.970802 124.768822,95.987350 133.768173,96.005028 
	C138.795990,96.014900 140.847961,98.024658 140.986206,103.121292 
	C141.061035,105.879913 140.999542,108.642242 140.999542,111.833420 
	C144.739990,108.332817 147.891098,105.128853 151.308334,102.239624 
	C158.064758,96.527176 166.237198,94.363266 174.821060,94.079857 
	C183.820541,93.782722 192.858154,93.370750 201.518906,97.121498 
	C214.672562,102.818008 222.944778,112.810776 225.766312,126.458931 
	C228.139893,137.940186 229.421494,149.778397 229.826065,161.505539 
	C230.475006,180.315216 230.004547,199.163651 229.997971,217.995712 
	C229.994949,226.603516 228.588089,227.999054 219.982269,227.999832 
	C212.316116,228.000549 204.649979,228.000595 196.983826,227.999847 
	C188.728165,227.999039 187.020309,226.302002 187.009384,217.796402 
	C186.981354,195.964600 187.341064,174.125168 186.857635,152.304031 
	C186.611862,141.210281 181.845245,133.022812 172.608063,129.979279 
	C159.635162,125.704880 147.848419,131.880432 143.135406,146.044693 
	C141.820419,149.996704 141.162003,154.330872 141.093475,158.504364 
	C140.852692,173.166061 141.000000,187.834167 141.000000,202.999756 
z"/>
<path fill="#" opacity="0.000000" stroke="none" 
	d="
M39.000000,215.915848 
	C39.000000,178.313705 38.998474,141.199661 39.001366,104.085602 
	C39.001911,97.072319 40.035946,96.009254 46.859486,96.001991 
	C54.848148,95.993492 62.836834,95.996864 70.825508,96.000938 
	C78.059196,96.004623 79.986244,97.971245 79.994972,105.462196 
	C80.012039,120.108078 80.000000,134.753998 80.000000,149.399902 
	C79.999992,172.367340 80.005943,195.334793 79.996681,218.302231 
	C79.993538,226.092468 78.124275,227.997025 70.561790,227.999451 
	C62.905975,228.001907 55.250160,228.001266 47.594345,227.999649 
	C40.288601,227.998108 39.003696,226.711060 39.000069,219.399841 
	C38.999573,218.401199 39.000000,217.402573 39.000000,215.915848 
z"/>
<path fill="#" opacity="0.000000" stroke="none" 
	d="
M48.446899,80.781654 
	C38.562672,75.773392 31.040638,64.560631 32.193508,55.608223 
	C33.924824,42.163952 40.688118,33.645271 53.384628,30.493862 
	C66.912918,27.135996 80.856857,35.051434 85.004471,50.476250 
	C87.656212,60.337982 84.412903,68.960487 77.671188,75.389969 
	C69.704506,82.987701 59.706291,85.781776 48.446899,80.781654 
z"/>
</svg>